<svg version="1.1" id="Layer_1" xmlns="http://www.w3.org/2000/svg" xmlns:xlink="http://www.w3.org/1999/xlink" x="0px" y="0px"
	 width="100%" viewBox="0 0 512 512" enable-background="new 0 0 512 512" xml:space="preserve">
<path fill="#DE992D" opacity="1.000000" stroke="none" 
	d="
M307.000000,513.000000 
	C204.691513,513.000000 102.883018,513.000000 1.037265,513.000000 
	C1.037265,342.399811 1.037265,171.799637 1.037265,1.099719 
	C171.558502,1.099719 342.117065,1.099719 512.837830,1.099719 
	C512.837830,171.666534 512.837830,342.333252 512.837830,513.000000 
	C444.466278,513.000000 375.983124,513.000000 307.000000,513.000000 
M389.196198,384.958893 
	C389.120880,377.977539 389.045563,370.996185 389.109528,363.347168 
	C399.026184,353.167664 410.334473,345.229095 424.362305,341.825897 
	C430.308441,340.383362 436.389740,339.465454 442.275635,337.827789 
	C443.966125,337.357422 446.426819,335.102264 446.320831,333.853241 
	C446.180817,332.203552 444.108765,329.891724 442.418854,329.397491 
	C440.017731,328.695251 437.119141,328.986755 434.588287,329.550507 
	C418.421936,333.151367 402.990021,338.619019 389.163055,347.241150 
	C387.193115,308.562927 380.916840,270.937897 358.199738,238.355209 
	C347.674500,223.259140 336.305237,208.455048 323.425171,195.384415 
	C311.613007,183.397507 295.828217,176.758148 278.775848,175.245895 
	C268.528870,174.337143 258.127167,174.919266 247.803802,175.179749 
	C227.702591,175.686935 208.023285,178.851089 189.247711,186.241928 
	C172.226593,192.942154 157.785110,204.084518 142.734161,214.157532 
	C132.069351,221.295074 124.799950,231.437637 118.117325,241.994308 
	C111.901932,251.812881 106.039757,261.875061 100.449303,272.064392 
	C92.386391,286.760162 84.570351,301.596832 76.964760,316.534180 
	C75.034088,320.325958 74.060936,324.668701 73.052879,328.855804 
	C68.778419,346.610413 70.909309,364.636749 70.936882,382.579498 
	C70.961365,398.513123 75.681625,412.660034 86.154121,424.808411 
	C100.429459,441.368195 118.486237,449.790070 139.267899,442.818695 
	C146.100235,440.526733 151.820724,434.480896 157.621368,429.638611 
	C172.615189,417.122040 183.876495,402.094635 189.505936,382.962708 
	C194.190353,367.042480 199.229645,351.153351 205.438385,335.786438 
	C208.453888,328.322968 214.106674,321.746735 219.423584,315.499115 
	C221.036224,313.604187 227.809021,312.882355 228.312439,313.789856 
	C231.331741,319.232727 236.263031,320.110504 241.386627,320.803406 
	C251.875702,322.221985 258.516785,327.753296 263.113220,337.478180 
	C270.379669,352.852203 271.000519,369.372528 272.849731,385.617310 
	C274.741394,402.235291 278.000214,418.306549 287.165070,432.404633 
	C301.800354,454.917725 319.471832,467.950714 345.782379,462.996918 
	C359.797577,460.358154 372.571228,455.398804 378.368896,441.368958 
	C383.034912,430.077515 385.834900,418.014923 390.269409,406.399994 
	C391.989838,406.977448 393.682953,407.946930 395.435120,408.069153 
	C407.468323,408.908539 419.541077,410.383026 431.544983,409.980164 
	C438.558319,409.744751 445.472107,406.433563 452.416687,404.456757 
	C453.011139,404.287537 453.618988,403.844269 454.018158,403.361053 
	C457.079926,399.654358 460.582611,396.181366 462.898895,392.047760 
	C463.959290,390.155396 463.446350,386.452026 462.216583,384.447601 
	C460.770630,382.090912 458.005371,380.199493 455.405975,378.954620 
	C444.508728,373.735565 432.908569,370.703857 420.855194,370.439728 
	C407.904816,370.155975 395.387451,371.636688 389.196198,384.958893 
M364.401855,48.828606 
	C356.128510,48.980560 347.783600,48.519199 339.603973,49.473927 
	C332.767883,50.271828 327.774139,56.534832 326.902039,63.196667 
	C326.328278,67.579399 327.735077,71.201820 331.759521,73.257332 
	C335.488922,75.162132 339.813812,75.211899 342.295349,71.817818 
	C346.657715,65.851242 352.580139,67.768387 358.100006,67.680229 
	C359.389191,67.659637 361.283112,69.035858 361.918243,70.272858 
	C367.195892,80.552444 372.243500,90.950150 377.513031,101.620789 
	C370.956268,101.620789 365.222961,100.458572 360.182648,101.834610 
	C343.832306,106.298378 336.120544,119.620811 331.212860,134.222092 
	C326.594635,147.962204 328.001282,162.606750 328.454437,176.897278 
	C328.718353,185.220215 331.885468,192.638153 338.215881,198.641357 
	C347.977020,207.897888 359.969421,212.258469 372.787506,213.882538 
	C392.444733,216.373184 412.208496,217.081848 432.066254,212.494003 
	C433.623932,214.869339 435.284546,217.531326 437.071930,220.105286 
	C445.719727,232.558441 457.678772,239.193893 472.780396,239.897736 
	C477.702545,240.127151 481.483551,236.691483 482.360046,232.091415 
	C483.208710,227.637726 480.609192,223.271469 475.898010,221.574554 
	C474.031799,220.902359 472.041504,220.517517 470.076599,220.186676 
	C463.141174,219.018875 457.629944,215.627289 453.771881,209.739380 
	C450.126709,204.176361 446.107758,198.779984 443.143219,192.864304 
	C434.960602,176.536163 427.290192,159.952148 419.328400,143.512329 
	C412.153534,128.697250 404.772308,113.981758 397.650238,99.141655 
	C392.472290,88.352486 387.770081,77.332222 382.474091,66.603409 
	C378.695007,58.947624 374.342438,51.545311 364.401855,48.828606 
M91.323601,117.871666 
	C83.891357,122.909889 76.652580,128.266647 68.987801,132.922012 
	C51.420361,143.591949 39.684998,158.870041 33.170010,178.078400 
	C26.759922,196.977463 20.941326,216.079605 15.038450,235.146896 
	C13.026251,241.646667 15.204544,246.274689 20.562094,248.236008 
	C25.821108,250.161255 31.108015,247.578201 33.347908,241.098831 
	C36.821766,231.049957 39.328686,220.659378 42.966415,210.676346 
	C48.307167,196.019699 54.028336,181.485443 60.165913,167.146637 
	C61.734421,163.482239 65.478378,160.749023 68.595390,157.158905 
	C73.845016,171.133423 81.489891,182.640121 94.002777,187.976669 
	C114.814987,196.852737 136.252640,199.410675 156.956268,185.996185 
	C167.917175,178.894318 178.166397,170.969421 179.757233,157.319427 
	C181.248108,144.527115 180.525177,131.475327 180.718445,118.536865 
	C180.730194,117.750748 180.242310,116.953018 179.967758,116.167381 
	C173.607559,97.966782 159.584686,88.372116 140.088730,88.445160 
	C139.068390,75.977005 138.097504,63.558754 137.017349,51.150021 
	C136.484650,45.030380 136.065491,38.872215 134.992401,32.838646 
	C134.313293,29.020330 133.039352,25.100924 131.107712,21.761648 
	C128.338699,16.974798 122.657768,15.712201 118.059540,18.048880 
	C113.764885,20.231287 112.246361,25.225931 114.087868,30.609509 
	C114.829575,32.777863 115.493645,35.022469 115.785690,37.284950 
	C116.466293,42.557652 116.917419,47.860550 117.429367,53.154320 
	C118.260643,61.750092 118.967712,70.359138 119.908295,78.942749 
	C121.004875,88.950050 116.242836,96.207008 109.195663,102.420494 
	C103.468018,107.470558 97.648010,112.415871 91.323601,117.871666 
z"/>
<path fill="#050201" opacity="1.000000" stroke="none" 
	d="
M389.462830,406.294525 
	C385.834900,418.014923 383.034912,430.077515 378.368896,441.368958 
	C372.571228,455.398804 359.797577,460.358154 345.782379,462.996918 
	C319.471832,467.950714 301.800354,454.917725 287.165070,432.404633 
	C278.000214,418.306549 274.741394,402.235291 272.849731,385.617310 
	C271.000519,369.372528 270.379669,352.852203 263.113220,337.478180 
	C258.516785,327.753296 251.875702,322.221985 241.386627,320.803406 
	C236.263031,320.110504 231.331741,319.232727 228.312439,313.789856 
	C227.809021,312.882355 221.036224,313.604187 219.423584,315.499115 
	C214.106674,321.746735 208.453888,328.322968 205.438385,335.786438 
	C199.229645,351.153351 194.190353,367.042480 189.505936,382.962708 
	C183.876495,402.094635 172.615189,417.122040 157.621368,429.638611 
	C151.820724,434.480896 146.100235,440.526733 139.267899,442.818695 
	C118.486237,449.790070 100.429459,441.368195 86.154121,424.808411 
	C75.681625,412.660034 70.961365,398.513123 70.936882,382.579498 
	C70.909309,364.636749 68.778419,346.610413 73.052879,328.855804 
	C74.060936,324.668701 75.034088,320.325958 76.964760,316.534180 
	C84.570351,301.596832 92.386391,286.760162 100.449303,272.064392 
	C106.039757,261.875061 111.901932,251.812881 118.117325,241.994308 
	C124.799950,231.437637 132.069351,221.295074 142.734161,214.157532 
	C157.785110,204.084518 172.226593,192.942154 189.247711,186.241928 
	C208.023285,178.851089 227.702591,175.686935 247.803802,175.179749 
	C258.127167,174.919266 268.528870,174.337143 278.775848,175.245895 
	C295.828217,176.758148 311.613007,183.397507 323.425171,195.384415 
	C336.305237,208.455048 347.674500,223.259140 358.199738,238.355209 
	C380.916840,270.937897 387.193115,308.562927 389.019043,347.991089 
	C382.496429,353.865448 376.605957,359.313660 373.675842,367.339417 
	C370.611023,375.734222 368.917114,384.308350 374.660492,391.860229 
	C378.786865,397.285980 384.472687,401.525726 389.462830,406.294525 
M274.030426,317.600525 
	C274.332520,317.805084 274.634613,318.009644 274.938263,318.791443 
	C275.267029,319.201324 275.595825,319.611176 276.136078,320.503082 
	C276.409485,320.708710 276.682922,320.914337 276.957031,321.039795 
	C276.957031,321.039795 276.881317,321.066254 276.923645,321.745422 
	C277.581207,322.877380 278.238770,324.009308 278.938721,325.035583 
	C278.938721,325.035583 278.845703,325.101196 278.945648,325.822235 
	C284.568146,337.167938 288.746552,348.908569 289.897247,361.669983 
	C290.581757,369.261017 292.022461,376.783875 292.941315,385.098511 
	C293.206116,386.594391 293.470947,388.090240 293.422455,390.376923 
	C294.536163,403.983551 298.981567,416.523041 307.197845,427.300476 
	C315.621185,438.349548 325.659149,446.798248 341.369507,444.139618 
	C351.425720,442.437836 359.171844,439.064453 362.852783,428.449310 
	C366.755829,417.193726 369.963257,406.113251 369.627350,393.955383 
	C368.805206,364.202393 371.705078,334.217010 364.022644,304.933044 
	C360.913361,293.081085 358.164551,280.955536 353.356628,269.769012 
	C345.565765,251.642105 332.912354,236.477448 320.738800,221.042053 
	C306.573608,203.081345 289.123260,193.089493 265.805756,194.495193 
	C259.826172,194.855682 253.810425,194.598572 247.811691,194.662262 
	C229.143784,194.860413 210.725235,197.474365 193.898163,205.542358 
	C181.232788,211.614990 169.735657,220.105988 157.638458,227.387482 
	C147.778091,233.322586 141.052505,242.167786 135.112686,251.632126 
	C127.167747,264.291290 119.092293,276.915649 112.032326,290.069885 
	C105.052490,303.074829 98.054695,316.302216 93.261017,330.190063 
	C87.176941,347.816376 90.645645,366.479401 90.783760,384.744843 
	C90.906174,400.933746 98.893562,412.449432 111.435852,421.450989 
	C121.003723,428.317871 132.518295,427.207855 140.779984,418.908386 
	C142.302658,417.378815 143.913544,415.933868 145.526398,414.497803 
	C154.415268,406.583496 162.749466,398.144318 167.160751,386.837280 
	C170.422363,378.477112 173.408463,369.956268 175.739914,361.297668 
	C180.299240,344.365326 185.521378,327.710724 195.477615,313.095673 
	C201.914276,303.647156 209.391022,295.140320 221.957916,293.672272 
	C223.244110,293.522003 225.201218,291.729553 225.365173,290.501343 
	C226.992477,278.310150 229.041946,266.105896 229.518616,253.848785 
	C230.072098,239.615906 232.173340,241.487625 216.581177,240.825012 
	C208.122665,240.465561 204.590958,245.065094 201.981857,251.666214 
	C200.701385,254.905869 199.757324,258.277313 198.518372,261.534851 
	C196.422226,267.046234 190.917068,269.640106 185.552383,267.755768 
	C181.087433,266.187408 178.148682,260.350769 179.791901,255.426147 
	C181.578339,250.072281 183.297607,244.580170 185.994797,239.669357 
	C192.223297,228.329071 201.049973,220.686768 215.126877,221.715225 
	C219.107315,222.006042 223.212936,221.314438 227.096985,222.001434 
	C231.589951,222.796143 235.878448,224.697647 240.303696,225.948914 
	C242.045975,226.441544 244.116974,227.114365 245.700455,226.620956 
	C264.495880,220.764359 277.871185,227.522003 285.944427,240.936249 
	C293.882599,254.126053 296.452911,269.595093 297.832520,284.940033 
	C298.253448,289.621887 295.287811,292.792450 290.772156,294.013184 
	C286.201508,295.248749 281.952484,293.279510 279.910065,289.051880 
	C278.982544,287.131989 278.461212,284.994934 277.917389,282.914124 
	C275.318481,272.969452 273.310455,262.823181 269.931396,253.154297 
	C268.691589,249.606812 264.558868,246.710892 261.127808,244.459641 
	C259.686615,243.514008 255.521790,244.193298 254.533279,245.548065 
	C251.310425,249.964966 248.109604,254.536392 249.056824,260.841736 
	C249.608322,264.512878 248.320602,268.426208 248.179108,272.242371 
	C247.844528,281.266998 242.826752,289.992493 248.715851,299.512115 
	C251.183228,303.500549 253.960480,303.592316 257.488556,305.130127 
	C257.669342,305.135864 257.850128,305.141632 258.192230,305.266113 
	C258.192230,305.266113 258.362610,305.160858 258.825562,305.739594 
	C261.509186,307.216675 264.192810,308.693756 266.923706,310.097565 
	C266.923706,310.097565 266.838379,310.079376 267.027405,310.588013 
	C267.335663,310.767120 267.643921,310.946198 267.966583,311.041565 
	C267.966583,311.041565 267.889191,311.076569 268.136047,311.672119 
	C268.725189,311.922791 269.314362,312.173492 269.953766,312.793488 
	C269.953766,312.793488 270.263184,313.001282 270.391357,313.553711 
	C270.928040,314.010529 271.464722,314.467346 272.352264,315.283264 
	C272.583954,315.524841 272.815643,315.766388 273.061188,316.556274 
	C273.343170,316.757202 273.625153,316.958099 273.930054,317.072296 
	C273.930054,317.072296 273.840485,317.076599 274.030426,317.600525 
z"/>
<path fill="#040201" opacity="1.000000" stroke="none" 
	d="
M364.804993,48.914307 
	C374.342438,51.545311 378.695007,58.947624 382.474091,66.603409 
	C387.770081,77.332222 392.472290,88.352486 397.650238,99.141655 
	C404.772308,113.981758 412.153534,128.697250 419.328400,143.512329 
	C427.290192,159.952148 434.960602,176.536163 443.143219,192.864304 
	C446.107758,198.779984 450.126709,204.176361 453.771881,209.739380 
	C457.629944,215.627289 463.141174,219.018875 470.076599,220.186676 
	C472.041504,220.517517 474.031799,220.902359 475.898010,221.574554 
	C480.609192,223.271469 483.208710,227.637726 482.360046,232.091415 
	C481.483551,236.691483 477.702545,240.127151 472.780396,239.897736 
	C457.678772,239.193893 445.719727,232.558441 437.071930,220.105286 
	C435.284546,217.531326 433.623932,214.869339 432.066254,212.494003 
	C412.208496,217.081848 392.444733,216.373184 372.787506,213.882538 
	C359.969421,212.258469 347.977020,207.897888 338.215881,198.641357 
	C331.885468,192.638153 328.718353,185.220215 328.454437,176.897278 
	C328.001282,162.606750 326.594635,147.962204 331.212860,134.222092 
	C336.120544,119.620811 343.832306,106.298378 360.182648,101.834610 
	C365.222961,100.458572 370.956268,101.620789 377.513031,101.620789 
	C372.243500,90.950150 367.195892,80.552444 361.918243,70.272858 
	C361.283112,69.035858 359.389191,67.659637 358.100006,67.680229 
	C352.580139,67.768387 346.657715,65.851242 342.295349,71.817818 
	C339.813812,75.211899 335.488922,75.162132 331.759521,73.257332 
	C327.735077,71.201820 326.328278,67.579399 326.902039,63.196667 
	C327.774139,56.534832 332.767883,50.271828 339.603973,49.473927 
	C347.783600,48.519199 356.128510,48.980560 364.804993,48.914307 
M393.123047,136.171631 
	C393.123047,136.171631 393.312958,136.088715 393.312958,136.088715 
	C393.312958,136.088715 392.874634,136.125107 393.174438,135.396942 
	C391.917023,132.510010 390.735596,129.585861 389.351807,126.760818 
	C388.979279,126.000206 388.079559,125.210175 387.272705,124.996391 
	C381.858582,123.561867 376.323303,122.538200 370.986328,120.872047 
	C365.994049,119.313515 362.033752,120.577301 358.946014,124.394272 
	C354.118164,130.362350 349.414795,136.578690 348.985199,144.636749 
	C348.463104,154.428970 348.469421,164.248260 348.058136,174.047913 
	C347.808624,179.992645 350.402832,184.156189 355.138489,187.447983 
	C363.367462,193.167984 372.875305,195.112625 382.445892,195.787399 
	C393.382080,196.558456 404.411926,196.056335 415.400269,195.982208 
	C417.447571,195.968399 419.490875,195.362549 421.903198,194.970215 
	C417.025024,184.910782 412.440857,175.457596 407.881348,166.055237 
	C405.079926,178.859650 402.052795,182.837112 392.105194,185.473602 
	C388.617920,186.397873 384.866119,186.497833 381.222900,186.625092 
	C372.775909,186.920120 369.757538,184.890808 366.222595,177.103104 
	C365.754761,176.072449 364.954803,175.196350 364.445618,174.180069 
	C362.388824,170.074997 359.541931,166.139969 358.525177,161.783142 
	C355.769653,149.975723 360.430817,140.318680 369.869385,137.108749 
	C377.406647,134.545425 385.135834,133.962570 393.123047,136.171631 
M374.422607,146.223526 
	C372.539703,147.534286 370.186035,148.520782 368.967865,150.289398 
	C368.336456,151.206116 369.208557,154.260773 370.308929,155.001602 
	C371.841034,156.033096 374.391968,156.404129 376.185669,155.904587 
	C377.453918,155.551361 379.233368,152.999542 378.940857,151.936493 
	C378.373840,149.875656 376.507782,148.172241 374.422607,146.223526 
z"/>
<path fill="#040201" opacity="1.000000" stroke="none" 
	d="
M91.596283,117.639648 
	C97.648010,112.415871 103.468018,107.470558 109.195663,102.420494 
	C116.242836,96.207008 121.004875,88.950050 119.908295,78.942749 
	C118.967712,70.359138 118.260643,61.750092 117.429367,53.154320 
	C116.917419,47.860550 116.466293,42.557652 115.785690,37.284950 
	C115.493645,35.022469 114.829575,32.777863 114.087868,30.609509 
	C112.246361,25.225931 113.764885,20.231287 118.059540,18.048880 
	C122.657768,15.712201 128.338699,16.974798 131.107712,21.761648 
	C133.039352,25.100924 134.313293,29.020330 134.992401,32.838646 
	C136.065491,38.872215 136.484650,45.030380 137.017349,51.150021 
	C138.097504,63.558754 139.068390,75.977005 140.088730,88.445160 
	C159.584686,88.372116 173.607559,97.966782 179.967758,116.167381 
	C180.242310,116.953018 180.730194,117.750748 180.718445,118.536865 
	C180.525177,131.475327 181.248108,144.527115 179.757233,157.319427 
	C178.166397,170.969421 167.917175,178.894318 156.956268,185.996185 
	C136.252640,199.410675 114.814987,196.852737 94.002777,187.976669 
	C81.489891,182.640121 73.845016,171.133423 68.595390,157.158905 
	C65.478378,160.749023 61.734421,163.482239 60.165913,167.146637 
	C54.028336,181.485443 48.307167,196.019699 42.966415,210.676346 
	C39.328686,220.659378 36.821766,231.049957 33.347908,241.098831 
	C31.108015,247.578201 25.821108,250.161255 20.562094,248.236008 
	C15.204544,246.274689 13.026251,241.646667 15.038450,235.146896 
	C20.941326,216.079605 26.759922,196.977463 33.170010,178.078400 
	C39.684998,158.870041 51.420361,143.591949 68.987801,132.922012 
	C76.652580,128.266647 83.891357,122.909889 91.596283,117.639648 
M92.673119,140.219162 
	C91.486427,141.327652 89.347466,142.383575 89.282837,143.554016 
	C89.041580,147.922867 88.223450,152.916016 89.939873,156.592773 
	C93.002190,163.152588 97.524010,169.507706 104.895096,171.862305 
	C121.163391,177.058960 136.940491,178.009888 151.574799,166.305740 
	C157.858734,161.279984 161.335068,155.553314 161.558395,147.789261 
	C161.773895,140.297195 161.801285,132.789856 161.592651,125.298103 
	C161.373459,117.427376 155.555878,110.813934 147.884460,108.903046 
	C143.125183,107.717537 138.436752,106.247551 133.716507,104.905251 
	C134.377594,105.256546 135.038681,105.607834 135.699768,105.959122 
	C128.855988,111.753220 122.137466,117.704132 115.133553,123.297714 
	C108.001831,128.993378 100.589195,134.337326 92.673119,140.219162 
z"/>
<path fill="#FCFBF6" opacity="1.000000" stroke="none" 
	d="
M389.866150,406.347260 
	C384.472687,401.525726 378.786865,397.285980 374.660492,391.860229 
	C368.917114,384.308350 370.611023,375.734222 373.675842,367.339417 
	C376.605957,359.313660 382.496429,353.865448 389.070374,348.467102 
	C402.990021,338.619019 418.421936,333.151367 434.588287,329.550507 
	C437.119141,328.986755 440.017731,328.695251 442.418854,329.397491 
	C444.108765,329.891724 446.180817,332.203552 446.320831,333.853241 
	C446.426819,335.102264 443.966125,337.357422 442.275635,337.827789 
	C436.389740,339.465454 430.308441,340.383362 424.362305,341.825897 
	C410.334473,345.229095 399.026184,353.167664 388.742126,363.846558 
	C387.198975,366.305878 386.099854,368.316833 384.834320,370.216919 
	C379.187805,378.694702 379.553040,382.405396 387.344086,392.210938 
	C387.832703,392.825897 388.434326,393.351013 389.148315,394.221130 
	C394.402679,396.693268 399.385376,400.336029 404.604553,400.714142 
	C414.474243,401.429169 424.556915,400.882935 434.398834,399.647797 
	C439.956482,398.950256 445.420258,396.254059 450.537811,393.684418 
	C454.886322,391.500916 454.776917,389.694824 450.890228,386.857422 
	C441.391174,379.922821 430.619537,376.710358 418.939392,376.452972 
	C409.784973,376.251221 402.821259,381.376099 396.364258,386.811066 
	C394.023621,388.781158 393.586212,393.272827 389.375732,388.680420 
	C389.257721,387.479828 389.293274,386.665924 389.328796,385.851990 
	C395.387451,371.636688 407.904816,370.155975 420.855194,370.439728 
	C432.908569,370.703857 444.508728,373.735565 455.405975,378.954620 
	C458.005371,380.199493 460.770630,382.090912 462.216583,384.447601 
	C463.446350,386.452026 463.959290,390.155396 462.898895,392.047760 
	C460.582611,396.181366 457.079926,399.654358 454.018158,403.361053 
	C453.618988,403.844269 453.011139,404.287537 452.416687,404.456757 
	C445.472107,406.433563 438.558319,409.744751 431.544983,409.980164 
	C419.541077,410.383026 407.468323,408.908539 395.435120,408.069153 
	C393.682953,407.946930 391.989838,406.977448 389.866150,406.347260 
z"/>
<path fill="#090707" opacity="1.000000" stroke="none" 
	d="
M388.983398,393.917908 
	C388.434326,393.351013 387.832703,392.825897 387.344086,392.210938 
	C379.553040,382.405396 379.187805,378.694702 384.834320,370.216919 
	C386.099854,368.316833 387.198975,366.305878 388.672485,364.180389 
	C389.045563,370.996185 389.120880,377.977539 389.262512,385.405457 
	C389.293274,386.665924 389.257721,387.479828 389.242706,389.061707 
	C389.169922,391.192413 389.076630,392.555176 388.983398,393.917908 
z"/>
<path fill="#DD982E" opacity="1.000000" stroke="none" 
	d="
M257.022949,304.851501 
	C253.960480,303.592316 251.183228,303.500549 248.715851,299.512115 
	C242.826752,289.992493 247.844528,281.266998 248.179108,272.242371 
	C248.320602,268.426208 249.608322,264.512878 249.056824,260.841736 
	C248.109604,254.536392 251.310425,249.964966 254.533279,245.548065 
	C255.521790,244.193298 259.686615,243.514008 261.127808,244.459641 
	C264.558868,246.710892 268.691589,249.606812 269.931396,253.154297 
	C273.310455,262.823181 275.318481,272.969452 277.917389,282.914124 
	C278.461212,284.994934 278.982544,287.131989 279.910065,289.051880 
	C281.952484,293.279510 286.201508,295.248749 290.772156,294.013184 
	C295.287811,292.792450 298.253448,289.621887 297.832520,284.940033 
	C296.452911,269.595093 293.882599,254.126053 285.944427,240.936249 
	C277.871185,227.522003 264.495880,220.764359 245.700455,226.620956 
	C244.116974,227.114365 242.045975,226.441544 240.303696,225.948914 
	C235.878448,224.697647 231.589951,222.796143 227.096985,222.001434 
	C223.212936,221.314438 219.107315,222.006042 215.126877,221.715225 
	C201.049973,220.686768 192.223297,228.329071 185.994797,239.669357 
	C183.297607,244.580170 181.578339,250.072281 179.791901,255.426147 
	C178.148682,260.350769 181.087433,266.187408 185.552383,267.755768 
	C190.917068,269.640106 196.422226,267.046234 198.518372,261.534851 
	C199.757324,258.277313 200.701385,254.905869 201.981857,251.666214 
	C204.590958,245.065094 208.122665,240.465561 216.581177,240.825012 
	C232.173340,241.487625 230.072098,239.615906 229.518616,253.848785 
	C229.041946,266.105896 226.992477,278.310150 225.365173,290.501343 
	C225.201218,291.729553 223.244110,293.522003 221.957916,293.672272 
	C209.391022,295.140320 201.914276,303.647156 195.477615,313.095673 
	C185.521378,327.710724 180.299240,344.365326 175.739914,361.297668 
	C173.408463,369.956268 170.422363,378.477112 167.160751,386.837280 
	C162.749466,398.144318 154.415268,406.583496 145.526398,414.497803 
	C143.913544,415.933868 142.302658,417.378815 140.779984,418.908386 
	C132.518295,427.207855 121.003723,428.317871 111.435852,421.450989 
	C98.893562,412.449432 90.906174,400.933746 90.783760,384.744843 
	C90.645645,366.479401 87.176941,347.816376 93.261017,330.190063 
	C98.054695,316.302216 105.052490,303.074829 112.032326,290.069885 
	C119.092293,276.915649 127.167747,264.291290 135.112686,251.632126 
	C141.052505,242.167786 147.778091,233.322586 157.638458,227.387482 
	C169.735657,220.105988 181.232788,211.614990 193.898163,205.542358 
	C210.725235,197.474365 229.143784,194.860413 247.811691,194.662262 
	C253.810425,194.598572 259.826172,194.855682 265.805756,194.495193 
	C289.123260,193.089493 306.573608,203.081345 320.738800,221.042053 
	C332.912354,236.477448 345.565765,251.642105 353.356628,269.769012 
	C358.164551,280.955536 360.913361,293.081085 364.022644,304.933044 
	C371.705078,334.217010 368.805206,364.202393 369.627350,393.955383 
	C369.963257,406.113251 366.755829,417.193726 362.852783,428.449310 
	C359.171844,439.064453 351.425720,442.437836 341.369507,444.139618 
	C325.659149,446.798248 315.621185,438.349548 307.197845,427.300476 
	C298.981567,416.523041 294.536163,403.983551 293.929565,390.144501 
	C296.511810,390.320679 298.645966,391.262207 300.651306,391.040192 
	C307.245544,390.310150 313.828400,389.347565 320.351105,388.128906 
	C333.873413,385.602539 347.273651,382.580658 359.579956,376.078033 
	C360.846954,375.408569 362.187897,374.606934 363.066467,373.520477 
	C367.530640,367.999786 366.960205,362.180786 361.535828,356.708344 
	C351.630096,346.714752 338.778290,342.691650 325.710327,339.165161 
	C316.969330,336.806305 308.188690,334.594269 299.353333,332.297699 
	C305.060547,318.958069 310.701111,315.572113 324.023651,318.122162 
	C334.775116,320.180084 345.398346,322.911072 356.070953,325.375946 
	C359.448334,326.155945 362.123749,325.564178 362.955658,321.762024 
	C363.694031,318.387665 361.073792,315.381012 357.378052,315.020569 
	C355.409912,314.828583 353.431915,314.637726 351.492371,314.268158 
	C336.985016,311.503723 322.486145,308.694763 307.891479,305.753052 
	C307.536255,305.711151 307.274170,305.815948 306.714966,306.017609 
	C306.003174,306.097839 305.588501,306.081238 304.847717,306.067200 
	C304.031494,306.432068 303.541321,306.794403 303.046295,307.108002 
	C303.041443,307.059235 303.138977,307.069031 302.894104,307.150421 
	C302.437317,307.494110 302.225403,307.756378 301.943970,308.247681 
	C301.742157,308.800415 301.504517,308.996582 300.747437,309.047607 
	C298.728912,310.342041 297.124512,311.654144 294.676025,313.656525 
	C294.816162,313.663971 293.598053,313.599213 292.098572,313.519501 
	C292.488983,315.665558 292.806030,317.408234 293.101440,319.086182 
	C293.079803,319.021454 293.170197,319.123779 292.730835,319.085144 
	C286.727631,317.769562 285.651672,321.405151 285.451813,325.908905 
	C282.996124,325.608673 280.920898,325.354919 278.845703,325.101196 
	C278.845703,325.101196 278.938721,325.035583 278.948120,324.697083 
	C278.265442,323.261108 277.573364,322.163696 276.881317,321.066254 
	C276.881317,321.066254 276.957031,321.039795 276.856140,320.836670 
	C276.478333,320.429382 276.201477,320.225220 275.924591,320.021057 
	C275.595825,319.611176 275.267029,319.201324 274.840881,318.241058 
	C274.442535,317.485992 274.141510,317.281281 273.840485,317.076599 
	C273.840485,317.076599 273.930054,317.072296 273.852417,316.872864 
	C273.532288,316.451599 273.289825,316.229767 273.047333,316.007965 
	C272.815643,315.766388 272.583954,315.524841 272.140015,314.813019 
	C271.372894,313.895599 270.818024,313.448456 270.263184,313.001282 
	C270.263184,313.001282 269.953766,312.793488 269.818390,312.289124 
	C269.085052,311.548737 268.487122,311.312653 267.889191,311.076569 
	C267.889191,311.076569 267.966583,311.041565 267.851410,310.836426 
	C267.436951,310.447296 267.137665,310.263336 266.838379,310.079346 
	C266.838379,310.079376 266.923706,310.097565 266.930664,309.743347 
	C265.593597,304.908722 261.753662,305.489960 258.362610,305.160858 
	C258.362610,305.160858 258.192230,305.266113 258.044800,305.027710 
	C257.605927,304.810028 257.314423,304.830750 257.022949,304.851501 
z"/>
<path fill="#FDFCF5" opacity="1.000000" stroke="none" 
	d="
M307.984619,305.899780 
	C322.486145,308.694763 336.985016,311.503723 351.492371,314.268158 
	C353.431915,314.637726 355.409912,314.828583 357.378052,315.020569 
	C361.073792,315.381012 363.694031,318.387665 362.955658,321.762024 
	C362.123749,325.564178 359.448334,326.155945 356.070953,325.375946 
	C345.398346,322.911072 334.775116,320.180084 324.023651,318.122162 
	C310.701111,315.572113 305.060547,318.958069 299.353333,332.297699 
	C308.188690,334.594269 316.969330,336.806305 325.710327,339.165161 
	C338.778290,342.691650 351.630096,346.714752 361.535828,356.708344 
	C366.960205,362.180786 367.530640,367.999786 363.066467,373.520477 
	C362.187897,374.606934 360.846954,375.408569 359.579956,376.078033 
	C347.273651,382.580658 333.873413,385.602539 320.351105,388.128906 
	C313.828400,389.347565 307.245544,390.310150 300.651306,391.040192 
	C298.645966,391.262207 296.511810,390.320679 294.086182,389.749084 
	C293.470947,388.090240 293.206116,386.594391 293.381897,384.551849 
	C295.519989,383.379395 297.170380,382.513428 298.923187,382.169464 
	C306.411011,380.700104 314.023712,379.764069 321.412476,377.919128 
	C331.034363,375.516602 340.624756,372.825806 349.966614,369.518768 
	C356.685913,367.140106 356.737610,364.828308 351.735962,359.605743 
	C345.642029,353.242645 337.961853,349.884766 329.635284,347.888641 
	C316.754089,344.800629 303.772614,342.125519 290.915802,338.943481 
	C285.522369,337.608612 284.450653,335.173126 286.749878,330.155304 
	C288.513855,326.305756 291.003357,322.788696 293.170166,319.123779 
	C293.170197,319.123779 293.079803,319.021454 293.414795,318.946869 
	C296.220367,315.603271 298.690948,312.334229 301.161560,309.065216 
	C301.504517,308.996582 301.742157,308.800415 302.195709,308.169373 
	C302.724274,307.597748 302.931641,307.333405 303.138977,307.069031 
	C303.138977,307.069031 303.041443,307.059235 303.355469,307.073578 
	C304.170929,306.746826 304.672363,306.405731 305.173798,306.064636 
	C305.588501,306.081238 306.003174,306.097839 306.959351,306.070679 
	C307.662109,305.984497 307.823364,305.942139 307.984619,305.899780 
z"/>
<path fill="#DE9931" opacity="1.000000" stroke="none" 
	d="
M292.730804,319.085144 
	C291.003357,322.788696 288.513855,326.305756 286.749878,330.155304 
	C284.450653,335.173126 285.522369,337.608612 290.915802,338.943481 
	C303.772614,342.125519 316.754089,344.800629 329.635284,347.888641 
	C337.961853,349.884766 345.642029,353.242645 351.735962,359.605743 
	C356.737610,364.828308 356.685913,367.140106 349.966614,369.518768 
	C340.624756,372.825806 331.034363,375.516602 321.412476,377.919128 
	C314.023712,379.764069 306.411011,380.700104 298.923187,382.169464 
	C297.170380,382.513428 295.519989,383.379395 293.472839,384.171265 
	C292.022461,376.783875 290.581757,369.261017 289.897247,361.669983 
	C288.746552,348.908569 284.568146,337.167938 278.895691,325.461731 
	C280.920898,325.354919 282.996124,325.608673 285.451813,325.908905 
	C285.651672,321.405151 286.727631,317.769562 292.730804,319.085144 
z"/>
<path fill="#DE9931" opacity="1.000000" stroke="none" 
	d="
M258.594086,305.450226 
	C261.753662,305.489960 265.593597,304.908722 266.907043,309.779999 
	C264.192810,308.693756 261.509186,307.216675 258.594086,305.450226 
z"/>
<path fill="#DE9931" opacity="1.000000" stroke="none" 
	d="
M276.902466,321.405823 
	C277.573364,322.163696 278.265442,323.261108 278.926941,324.749878 
	C278.238770,324.009308 277.581207,322.877380 276.902466,321.405823 
z"/>
<path fill="#DE9931" opacity="1.000000" stroke="none" 
	d="
M270.327271,313.277496 
	C270.818024,313.448456 271.372894,313.895599 271.964569,314.633453 
	C271.464722,314.467346 270.928040,314.010529 270.327271,313.277496 
z"/>
<path fill="#DE9931" opacity="1.000000" stroke="none" 
	d="
M268.012634,311.374329 
	C268.487122,311.312653 269.085052,311.548737 269.793274,312.104492 
	C269.314362,312.173492 268.725189,311.922791 268.012634,311.374329 
z"/>
<path fill="#DE9931" opacity="1.000000" stroke="none" 
	d="
M266.932892,310.333679 
	C267.137665,310.263336 267.436951,310.447296 267.844208,310.878265 
	C267.643921,310.946198 267.335663,310.767120 266.932892,310.333679 
z"/>
<path fill="#DE9931" opacity="1.000000" stroke="none" 
	d="
M273.054260,316.282104 
	C273.289825,316.229767 273.532288,316.451599 273.840942,316.916199 
	C273.625153,316.958099 273.343170,316.757202 273.054260,316.282104 
z"/>
<path fill="#DE9931" opacity="1.000000" stroke="none" 
	d="
M273.935455,317.338562 
	C274.141510,317.281281 274.442535,317.485992 274.840118,317.952423 
	C274.634613,318.009644 274.332520,317.805084 273.935455,317.338562 
z"/>
<path fill="#DE9931" opacity="1.000000" stroke="none" 
	d="
M276.030334,320.262085 
	C276.201477,320.225220 276.478333,320.429382 276.855774,320.876770 
	C276.682922,320.914337 276.409485,320.708710 276.030334,320.262085 
z"/>
<path fill="#DE9931" opacity="1.000000" stroke="none" 
	d="
M257.255737,304.990814 
	C257.314423,304.830750 257.605927,304.810028 257.964172,304.968353 
	C257.850128,305.141632 257.669342,305.135864 257.255737,304.990814 
z"/>
<path fill="#D8952F" opacity="1.000000" stroke="none" 
	d="
M392.936737,136.048218 
	C385.135834,133.962570 377.406647,134.545425 369.869385,137.108749 
	C360.430817,140.318680 355.769653,149.975723 358.525177,161.783142 
	C359.541931,166.139969 362.388824,170.074997 364.445618,174.180069 
	C364.954803,175.196350 365.754761,176.072449 366.222595,177.103104 
	C369.757538,184.890808 372.775909,186.920120 381.222900,186.625092 
	C384.866119,186.497833 388.617920,186.397873 392.105194,185.473602 
	C402.052795,182.837112 405.079926,178.859650 407.881348,166.055237 
	C412.440857,175.457596 417.025024,184.910782 421.903198,194.970215 
	C419.490875,195.362549 417.447571,195.968399 415.400269,195.982208 
	C404.411926,196.056335 393.382080,196.558456 382.445892,195.787399 
	C372.875305,195.112625 363.367462,193.167984 355.138489,187.447983 
	C350.402832,184.156189 347.808624,179.992645 348.058136,174.047913 
	C348.469421,164.248260 348.463104,154.428970 348.985199,144.636749 
	C349.414795,136.578690 354.118164,130.362350 358.946014,124.394272 
	C362.033752,120.577301 365.994049,119.313515 370.986328,120.872047 
	C376.323303,122.538200 381.858582,123.561867 387.272705,124.996391 
	C388.079559,125.210175 388.979279,126.000206 389.351807,126.760818 
	C390.735596,129.585861 391.917023,132.510010 393.042358,135.743530 
	C392.910248,136.090118 392.936737,136.048218 392.936737,136.048218 
z"/>
<path fill="#EDEDED" opacity="1.000000" stroke="none" 
	d="
M374.801300,146.272125 
	C376.507782,148.172241 378.373840,149.875656 378.940857,151.936493 
	C379.233368,152.999542 377.453918,155.551361 376.185669,155.904587 
	C374.391968,156.404129 371.841034,156.033096 370.308929,155.001602 
	C369.208557,154.260773 368.336456,151.206116 368.967865,150.289398 
	C370.186035,148.520782 372.539703,147.534286 374.801300,146.272125 
z"/>
<path fill="#D8952F" opacity="1.000000" stroke="none" 
	d="
M392.892456,136.107605 
	C392.874634,136.125107 393.312958,136.088715 393.312958,136.088715 
	C393.312958,136.088715 393.123047,136.171631 393.029907,136.109924 
	C392.936737,136.048218 392.910248,136.090118 392.892456,136.107605 
z"/>
<path fill="#D7942F" opacity="1.000000" stroke="none" 
	d="
M92.986343,140.027222 
	C100.589195,134.337326 108.001831,128.993378 115.133553,123.297714 
	C122.137466,117.704132 128.855988,111.753220 135.699768,105.959122 
	C135.038681,105.607834 134.377594,105.256546 133.716507,104.905251 
	C138.436752,106.247551 143.125183,107.717537 147.884460,108.903046 
	C155.555878,110.813934 161.373459,117.427376 161.592651,125.298103 
	C161.801285,132.789856 161.773895,140.297195 161.558395,147.789261 
	C161.335068,155.553314 157.858734,161.279984 151.574799,166.305740 
	C136.940491,178.009888 121.163391,177.058960 104.895096,171.862305 
	C97.524010,169.507706 93.002190,163.152588 89.939873,156.592773 
	C88.223450,152.916016 89.041580,147.922867 89.282837,143.554016 
	C89.347466,142.383575 91.486427,141.327652 92.986343,140.027222 
M120.436691,170.640167 
	C124.943398,171.848602 128.933411,171.466675 132.190216,167.535461 
	C133.014313,166.540710 134.735870,166.142044 136.126114,165.786667 
	C149.438354,162.383682 155.383942,153.385880 153.259644,139.739120 
	C151.668869,129.519882 146.552841,125.206467 136.217560,125.655411 
	C127.271263,126.044029 118.841980,128.391632 111.010040,132.821198 
	C100.505432,138.762360 98.427719,149.899536 106.645958,158.759933 
	C110.573959,162.994858 115.352974,166.440460 120.436691,170.640167 
z"/>
<path fill="#DE9A31" opacity="1.000000" stroke="none" 
	d="
M389.148315,394.221130 
	C389.076630,392.555176 389.169922,391.192413 389.396240,389.448364 
	C393.586212,393.272827 394.023621,388.781158 396.364258,386.811066 
	C402.821259,381.376099 409.784973,376.251221 418.939392,376.452972 
	C430.619537,376.710358 441.391174,379.922821 450.890228,386.857422 
	C454.776917,389.694824 454.886322,391.500916 450.537811,393.684418 
	C445.420258,396.254059 439.956482,398.950256 434.398834,399.647797 
	C424.556915,400.882935 414.474243,401.429169 404.604553,400.714142 
	C399.385376,400.336029 394.402679,396.693268 389.148315,394.221130 
z"/>
<path fill="#DE9931" opacity="1.000000" stroke="none" 
	d="
M300.747437,309.047607 
	C298.690948,312.334229 296.220367,315.603271 293.436401,319.011597 
	C292.806030,317.408234 292.488983,315.665558 292.098572,313.519501 
	C293.598053,313.599213 294.816162,313.663971 294.676025,313.656525 
	C297.124512,311.654144 298.728912,310.342041 300.747437,309.047607 
z"/>
<path fill="#DE9931" opacity="1.000000" stroke="none" 
	d="
M304.847717,306.067200 
	C304.672363,306.405731 304.170929,306.746826 303.360321,307.122345 
	C303.541321,306.794403 304.031494,306.432068 304.847717,306.067200 
z"/>
<path fill="#DE9931" opacity="1.000000" stroke="none" 
	d="
M302.894104,307.150421 
	C302.931641,307.333405 302.724274,307.597748 302.265198,307.940369 
	C302.225403,307.756378 302.437317,307.494110 302.894104,307.150421 
z"/>
<path fill="#DE9931" opacity="1.000000" stroke="none" 
	d="
M307.891479,305.753052 
	C307.823364,305.942139 307.662109,305.984497 307.256470,305.973816 
	C307.274170,305.815948 307.536255,305.711151 307.891479,305.753052 
z"/>
<path fill="#060402" opacity="1.000000" stroke="none" 
	d="
M120.091614,170.441864 
	C115.352974,166.440460 110.573959,162.994858 106.645958,158.759933 
	C98.427719,149.899536 100.505432,138.762360 111.010040,132.821198 
	C118.841980,128.391632 127.271263,126.044029 136.217560,125.655411 
	C146.552841,125.206467 151.668869,129.519882 153.259644,139.739120 
	C155.383942,153.385880 149.438354,162.383682 136.126114,165.786667 
	C134.735870,166.142044 133.014313,166.540710 132.190216,167.535461 
	C128.933411,171.466675 124.943398,171.848602 120.091614,170.441864 
M119.773018,131.046906 
	C119.441780,131.796280 118.934731,132.517609 118.809914,133.299911 
	C118.285164,136.588837 119.753220,138.874924 122.944481,139.452652 
	C126.384895,140.075500 128.805801,138.349838 129.199448,134.824890 
	C129.582260,131.396988 127.221245,129.703537 124.210846,129.271179 
	C122.910851,129.084473 121.456871,129.969849 119.773018,131.046906 
z"/>
<path fill="#F0EFEF" opacity="1.000000" stroke="none" 
	d="
M119.922928,130.707565 
	C121.456871,129.969849 122.910851,129.084473 124.210846,129.271179 
	C127.221245,129.703537 129.582260,131.396988 129.199448,134.824890 
	C128.805801,138.349838 126.384895,140.075500 122.944481,139.452652 
	C119.753220,138.874924 118.285164,136.588837 118.809914,133.299911 
	C118.934731,132.517609 119.441780,131.796280 119.922928,130.707565 
z"/>
</svg>